<?xml version="1.0" standalone="no"?>
<!DOCTYPE svg PUBLIC "-//W3C//DTD SVG 20010904//EN"
 "http://www.w3.org/TR/2001/REC-SVG-20010904/DTD/svg10.dtd">
<svg version="1.0" xmlns="http://www.w3.org/2000/svg"
 width="2067.000000pt" height="2068.000000pt" viewBox="0 0 2067.000000 2068.000000"
 preserveAspectRatio="xMidYMid meet">

<g transform="translate(0.000000,2068.000000) scale(0.100000,-0.100000)"
fill="#000000" stroke="none">
<path d="M10130 20673 c-1088 -19 -2215 -222 -3229 -580 -2984 -1054 -5326
-3417 -6351 -6408 -458 -1339 -634 -2778 -514 -4230 171 -2088 1002 -4110
2355 -5730 389 -467 867 -945 1324 -1325 1561 -1299 3440 -2103 5445 -2329
732 -83 1512 -86 2250 -11 2598 268 4986 1509 6721 3495 933 1067 1656 2363
2075 3717 617 1998 617 4138 0 6136 -700 2265 -2185 4241 -4176 5557 -1473
973 -3135 1543 -4905 1680 -171 13 -821 38 -850 33 -5 -2 -71 -3 -145 -5z
m-4685 -5895 c45 -46 108 -119 141 -163 58 -76 134 -196 134 -209 0 -3 12 -30
26 -59 41 -84 83 -205 110 -316 14 -58 28 -109 31 -114 3 -5 12 -57 19 -116
17 -138 17 -411 -1 -531 -14 -94 -54 -267 -76 -325 -6 -16 -21 -67 -34 -111
-13 -45 -27 -90 -33 -100 -27 -51 -44 -177 -41 -297 4 -117 6 -126 38 -191
157 -308 523 -528 1059 -635 154 -31 242 -39 242 -21 0 5 -43 35 -96 67 -98
58 -159 119 -147 148 2 8 32 28 66 45 52 26 71 30 142 30 67 0 101 -6 183 -34
148 -50 223 -95 332 -202 136 -133 138 -134 395 -134 209 0 293 5 600 35 88 8
219 20 290 25 72 6 171 17 220 24 50 8 128 19 175 25 47 6 119 15 160 21 151
19 275 51 275 69 0 13 -27 22 -233 82 -62 18 -115 36 -118 40 -6 10 100 49
134 49 15 0 68 11 117 25 50 14 114 32 142 40 108 30 264 103 383 180 94 60
235 197 300 290 49 72 129 224 145 275 22 73 67 151 93 161 32 13 255 5 296
-11 14 -5 54 -14 88 -20 34 -5 101 -21 148 -36 115 -35 348 -113 385 -128 37
-16 149 -60 231 -91 33 -12 69 -27 80 -33 10 -6 96 -45 189 -88 160 -74 221
-106 305 -160 87 -56 188 -76 283 -55 23 5 101 17 172 26 72 9 159 23 195 30
36 8 144 22 240 30 96 9 218 22 270 30 101 16 267 29 550 45 96 6 222 16 280
22 68 8 295 12 645 13 445 0 567 -3 690 -17 83 -9 211 -22 285 -28 74 -6 182
-20 240 -30 58 -11 159 -29 225 -39 270 -44 403 -96 501 -196 52 -53 66 -75
93 -149 33 -92 39 -144 19 -150 -7 -2 -51 -9 -98 -16 -276 -38 -467 -126 -630
-290 -129 -129 -232 -320 -172 -320 39 0 151 33 210 60 34 17 64 30 67 30 2 0
24 14 48 30 25 17 48 30 51 30 3 0 54 36 113 79 144 107 233 151 305 151 51 0
58 -3 86 -35 38 -42 47 -85 39 -184 -7 -90 -42 -178 -84 -211 -15 -12 -64 -56
-109 -98 -44 -43 -179 -167 -299 -277 -121 -110 -256 -234 -300 -276 -109
-103 -259 -212 -405 -295 -91 -52 -298 -154 -358 -176 -32 -12 -66 -27 -77
-34 -11 -6 -31 -15 -45 -19 -63 -18 -179 -81 -282 -153 -114 -79 -161 -107
-278 -169 -62 -33 -89 -44 -276 -111 -89 -32 -121 -51 -174 -107 -66 -69 -263
-209 -395 -280 -184 -99 -468 -195 -710 -240 -38 -7 -104 -21 -145 -30 -41 -9
-116 -23 -166 -31 -51 -8 -129 -21 -175 -30 -90 -17 -145 -25 -339 -50 -69 -9
-141 -20 -160 -24 -19 -5 -96 -14 -170 -20 -74 -7 -207 -18 -295 -26 -88 -8
-223 -19 -300 -25 -185 -14 -944 -6 -1081 11 -95 12 -107 12 -210 -9 -60 -13
-136 -33 -169 -46 -33 -13 -82 -31 -110 -41 -27 -9 -54 -21 -60 -25 -5 -4 -39
-17 -75 -29 -36 -13 -70 -26 -75 -31 -10 -8 -74 -33 -227 -90 -42 -15 -85 -33
-95 -38 -35 -19 -334 -114 -448 -142 -44 -11 -102 -26 -130 -34 -56 -15 -162
-35 -340 -62 -89 -13 -178 -18 -345 -18 l-225 0 -3 29 c-6 50 60 286 121 431
61 144 165 305 242 373 47 41 78 52 152 52 31 0 43 4 41 13 -5 14 -95 61 -158
81 -25 8 -103 35 -175 61 -71 25 -146 50 -165 55 -19 5 -60 19 -90 30 -30 12
-73 27 -95 34 -71 24 -196 77 -325 138 -330 158 -358 168 -473 168 -46 0 -110
-7 -142 -16 -85 -22 -150 -33 -305 -49 -74 -9 -164 -19 -200 -24 -171 -24
-376 -34 -715 -35 -375 -1 -552 11 -575 39 -10 12 15 50 170 252 86 112 108
143 163 233 83 135 192 372 232 505 16 55 18 52 -105 141 -144 105 -417 368
-692 669 -30 33 -117 128 -194 210 -77 83 -160 177 -186 210 -25 33 -56 70
-69 82 -43 38 -191 98 -384 154 -209 60 -346 115 -510 203 -396 213 -718 516
-932 881 -143 244 -260 582 -298 860 -9 66 -20 147 -24 180 -5 33 -7 63 -4 67
7 12 70 -24 203 -118 69 -48 161 -111 205 -139 195 -126 508 -261 730 -316 44
-11 103 -26 130 -34 47 -14 106 -23 390 -59 151 -20 375 -21 458 -2 34 8 87
19 117 25 31 6 86 27 123 46 176 90 308 227 497 515 21 31 89 166 125 245 26
59 42 100 82 220 25 73 53 217 53 267 0 44 8 68 23 68 6 0 48 -37 92 -82z"/>
<path d="M5439 14403 c-6 -16 -21 -50 -33 -78 -13 -27 -38 -81 -56 -120 -63
-137 -133 -269 -156 -296 -8 -8 -14 -19 -14 -23 0 -11 -77 -123 -139 -201
-145 -184 -337 -328 -497 -374 -38 -10 -82 -25 -99 -32 -40 -17 -493 -17 -585
0 -36 7 -114 18 -175 26 -60 7 -141 20 -180 29 -184 40 -283 66 -310 80 -16 9
-37 16 -46 16 -22 0 -83 25 -234 95 -27 13 -70 33 -95 44 -25 12 -88 44 -140
71 -52 28 -104 53 -115 56 -11 4 -28 13 -37 21 -18 16 -54 10 -43 -7 3 -5 10
-38 16 -72 30 -196 187 -509 365 -731 179 -221 473 -477 679 -589 84 -46 229
-116 255 -123 14 -4 43 -15 65 -25 22 -10 57 -21 78 -24 36 -7 37 -6 25 13 -7
12 -17 21 -22 21 -11 0 -180 93 -226 125 -363 251 -703 613 -842 900 -11 22
-24 48 -29 57 -13 25 -11 48 4 48 7 0 69 -59 137 -131 69 -73 168 -167 220
-211 167 -140 420 -297 550 -342 30 -10 60 -23 65 -27 14 -11 152 -42 166 -37
15 5 -19 36 -151 139 -121 95 -309 279 -334 327 -14 27 -14 33 -3 38 14 5 92
-45 287 -185 139 -100 339 -207 471 -251 62 -21 89 -25 89 -12 0 4 -39 46 -86
92 -136 134 -264 305 -264 353 0 27 1 26 96 -37 16 -11 43 -31 59 -46 17 -14
40 -33 51 -41 12 -8 48 -33 81 -56 96 -67 331 -193 360 -193 19 0 16 34 -6 88
-11 26 -27 80 -35 119 -9 40 -22 87 -30 105 -19 45 -38 129 -31 137 14 13 66
-32 154 -134 156 -183 242 -275 256 -275 7 0 16 8 19 17 11 27 26 247 26 378
0 153 7 195 30 195 14 0 21 -13 30 -47 33 -135 49 -214 55 -268 8 -68 32 -116
46 -94 5 8 9 26 9 41 0 15 6 45 14 65 22 62 46 169 46 205 0 37 23 198 48 332
17 91 37 120 47 69 3 -15 10 -44 16 -63 12 -43 48 -393 49 -472 0 -32 4 -58 9
-58 5 0 16 24 25 53 52 178 50 151 53 552 1 209 3 386 3 393 0 23 20 12 26
-15 4 -16 13 -39 20 -53 7 -14 22 -65 34 -114 12 -49 26 -97 30 -105 12 -22
40 -203 40 -259 0 -26 7 -78 15 -117 8 -38 15 -87 15 -107 0 -56 16 -54 36 4
25 78 32 464 10 557 -38 159 -46 194 -46 209 0 9 -6 29 -14 43 -7 15 -21 51
-31 80 -33 103 -132 279 -156 279 -5 0 -14 -12 -20 -27z"/>
<path d="M11026 12571 c-6 -10 46 -37 129 -67 28 -10 59 -24 70 -31 11 -7 25
-13 32 -13 6 0 55 -20 107 -45 53 -25 98 -45 100 -45 8 0 263 -175 291 -200
46 -40 89 -54 170 -55 86 0 221 30 229 51 13 35 -247 183 -394 225 -25 7 -50
16 -56 20 -6 5 -47 17 -91 28 -44 10 -89 24 -100 29 -32 18 -340 93 -435 106
-26 4 -49 3 -52 -3z"/>
<path d="M4980 12554 c-96 -21 -99 -27 -65 -121 28 -76 39 -98 114 -213 93
-144 286 -342 487 -502 124 -98 260 -198 270 -198 3 0 24 -13 47 -28 132 -90
595 -342 630 -342 6 0 39 -14 71 -30 32 -17 64 -30 70 -30 6 0 36 -13 66 -28
30 -15 82 -36 115 -47 33 -10 69 -24 80 -30 11 -7 34 -16 50 -20 17 -3 57 -17
90 -29 33 -13 87 -31 120 -40 33 -10 69 -22 80 -28 10 -6 61 -21 111 -34 51
-12 100 -26 111 -32 10 -5 54 -16 98 -26 44 -9 100 -23 125 -31 25 -8 83 -21
130 -30 47 -9 108 -22 135 -30 28 -8 93 -21 145 -30 52 -8 122 -21 155 -27 90
-17 150 -26 255 -38 52 -6 140 -18 195 -25 562 -80 1621 -80 2305 0 69 8 188
21 265 30 77 8 178 22 225 30 47 8 137 22 200 30 63 9 144 22 180 30 36 8 115
22 175 30 61 9 124 21 140 26 17 6 64 16 105 24 131 25 169 34 187 44 10 5 56
17 103 27 47 9 96 23 110 29 14 7 59 20 100 29 41 9 91 23 110 31 19 8 72 23
116 34 45 10 90 23 100 29 11 5 47 16 81 22 35 7 69 18 78 24 8 6 20 38 26 71
6 33 16 80 24 105 7 25 18 68 24 95 19 78 80 190 138 253 42 44 56 54 62 43 9
-14 -11 -70 -35 -101 -7 -8 -22 -40 -34 -70 -12 -30 -26 -61 -32 -67 -27 -33
-52 -293 -29 -293 16 0 103 111 171 219 247 387 287 441 312 415 12 -11 -36
-167 -73 -236 -8 -15 -25 -48 -38 -75 -14 -26 -44 -76 -68 -111 -24 -35 -43
-65 -43 -67 0 -3 -34 -57 -76 -120 -172 -262 -220 -401 -182 -527 22 -76 175
-186 338 -243 118 -42 283 -94 395 -125 68 -18 187 -55 290 -89 92 -31 111
-41 113 -59 3 -20 -1 -22 -48 -22 -28 0 -59 4 -69 10 -10 5 -45 14 -77 19 -32
6 -98 17 -146 25 -48 8 -92 17 -97 21 -6 3 -37 10 -68 16 -66 11 -205 37 -245
46 -31 6 -32 4 -17 -51 25 -90 89 -136 224 -160 50 -9 131 -24 180 -33 71 -13
152 -17 390 -17 l300 0 49 28 c27 15 68 43 91 62 23 19 47 34 52 34 6 0 16 7
23 15 11 13 189 105 205 105 4 0 36 14 72 30 35 16 68 30 72 30 41 0 398 198
535 296 140 101 195 142 262 199 39 33 98 82 130 108 159 131 470 457 436 457
-5 0 -24 -11 -43 -24 -180 -127 -390 -221 -546 -245 -122 -19 -255 -60 -310
-96 -28 -19 -95 -84 -148 -144 -94 -107 -164 -165 -213 -178 -29 -7 -83 34
-127 96 -28 40 -30 48 -30 139 0 91 2 101 35 162 52 98 146 215 234 292 115
100 137 90 64 -28 -45 -74 -90 -169 -113 -237 -19 -58 -30 -183 -17 -191 20
-12 169 159 240 274 22 36 67 116 99 178 68 131 65 126 123 222 48 81 210 251
294 309 67 47 186 104 280 136 89 30 126 51 126 71 0 19 -70 47 -170 68 -47
10 -103 24 -125 31 -55 17 -240 28 -326 20 -68 -7 -71 -8 -95 -47 -14 -21 -31
-41 -39 -44 -18 -7 -65 28 -86 64 -16 27 -16 27 -142 30 -106 2 -127 0 -127
-12 0 -8 15 -24 34 -36 65 -39 137 -138 162 -219 18 -61 18 -170 -2 -237 -57
-196 -311 -338 -492 -276 -91 32 -114 44 -163 84 -61 50 -94 99 -124 188 -30
89 -31 128 -4 205 36 101 68 153 147 236 24 26 40 49 35 52 -4 2 -69 -1 -143
-9 -74 -7 -168 -13 -209 -13 l-74 -1 -41 -45 c-40 -43 -44 -45 -97 -45 -46 0
-63 5 -97 30 -40 29 -45 30 -152 30 -60 0 -142 -7 -182 -14 -76 -16 -333 -46
-381 -46 -19 0 -30 -7 -36 -22 -13 -33 -57 -78 -77 -78 -9 0 -34 16 -55 35
-57 51 -87 48 -140 -15 -23 -28 -52 -53 -63 -56 -25 -6 -87 18 -106 41 -10 12
-23 15 -54 9 -59 -9 -73 -19 -107 -75 -35 -57 -78 -84 -118 -74 -43 11 -124
55 -139 76 -9 14 -25 19 -56 19 -50 0 -62 -11 -100 -93 -26 -55 -70 -97 -104
-97 -7 0 -41 14 -74 30 -62 31 -62 31 -87 12 -53 -39 -92 -53 -124 -46 -49 10
-102 40 -120 67 -14 22 -21 24 -64 20 -61 -7 -69 -14 -76 -67 -10 -71 -84
-167 -138 -179 -62 -15 -122 26 -185 125 -24 38 -27 39 -67 33 -64 -10 -92
-23 -109 -53 -9 -15 -30 -40 -46 -56 l-30 -28 -72 12 c-61 10 -74 10 -88 -3
-30 -26 -100 -57 -131 -57 -16 0 -56 14 -89 30 -38 19 -76 30 -102 30 -39 0
-42 -2 -61 -45 -22 -50 -87 -105 -123 -105 -12 0 -43 20 -71 44 l-50 45 -47
-46 c-43 -42 -50 -46 -96 -45 -27 1 -69 11 -93 22 -65 29 -97 27 -104 -7 -3
-16 -14 -44 -23 -63 -16 -33 -20 -35 -67 -34 -36 0 -52 5 -59 18 -25 43 -43
57 -78 63 -41 6 -42 5 -52 -58 -8 -45 -57 -110 -96 -126 -41 -18 -69 -4 -121
56 -24 28 -47 51 -51 51 -3 0 -16 -21 -28 -46 -27 -55 -70 -84 -127 -84 -36 0
-46 5 -72 37 -17 21 -31 46 -31 55 0 10 -6 18 -13 18 -15 0 -164 -52 -194 -68
-30 -16 -59 -15 -88 4 -37 24 -49 8 -22 -29 36 -48 50 -92 39 -114 -21 -38
-51 -56 -98 -57 -40 -1 -50 3 -75 32 -35 38 -37 73 -8 114 29 40 13 51 -65 43
-70 -6 -90 -18 -137 -78 -18 -25 -44 -50 -57 -56 -34 -16 -119 5 -134 32 -17
33 -39 46 -75 47 -35 0 -63 -29 -63 -65 0 -24 -63 -95 -83 -95 -22 0 -87 77
-93 110 -7 34 -20 40 -65 31 -29 -6 -35 -12 -40 -43 -3 -20 -13 -48 -23 -63
-16 -24 -19 -25 -39 -12 -12 8 -28 25 -34 39 -7 14 -19 31 -27 37 -9 7 -109
15 -287 21 -151 5 -338 13 -416 16 l-141 7 -19 -38 c-25 -53 -54 -61 -94 -28
-17 15 -38 42 -45 59 -16 38 -14 37 -164 59 -63 9 -132 23 -153 31 -49 18
-158 18 -204 -1 -19 -8 -43 -15 -52 -15 -17 0 -71 49 -71 64 0 19 -71 58 -180
100 -111 44 -246 111 -337 169 -24 15 -45 27 -48 27 -2 0 -39 26 -82 59 -155
117 -272 239 -364 381 -34 52 -45 72 -83 145 -25 50 -86 203 -86 217 0 12 -42
122 -59 158 -18 35 -249 51 -371 24z m9948 -554 c3 -33 -1 -47 -14 -57 -27
-20 -72 -16 -84 6 -28 53 6 104 65 99 28 -3 30 -6 33 -48z m-688 -95 c14 -17
6 -46 -19 -69 -16 -15 -20 -15 -49 0 -44 21 -48 32 -21 60 25 27 70 32 89 9z
m276 -100 c16 -8 35 -15 42 -15 32 0 2 -34 -48 -55 -72 -31 -98 -71 -110 -173
-15 -121 -33 -176 -106 -314 -38 -73 -66 -168 -67 -224 0 -145 190 -436 344
-526 57 -34 70 -38 135 -38 52 0 85 6 116 20 72 34 90 47 150 105 68 65 93 72
83 23 -21 -96 -185 -276 -307 -336 -75 -37 -90 -38 -161 -15 -145 46 -319 229
-424 443 -109 225 -121 307 -62 440 18 41 44 93 58 115 14 22 31 50 37 62 7
12 19 35 28 50 60 110 116 295 116 387 0 18 7 42 16 55 15 21 22 23 74 18 31
-4 70 -13 86 -22z m-1172 -16 c43 -20 41 -90 -4 -104 -45 -14 -92 74 -54 102
22 16 26 16 58 2z m-325 -48 c11 -11 23 -37 27 -57 6 -32 3 -39 -17 -55 -30
-23 -53 -24 -84 -3 -33 21 -32 58 1 101 29 38 46 41 73 14z m-397 -88 c19 -22
28 -69 21 -105 -6 -33 -31 -36 -87 -13 -44 19 -47 44 -11 98 28 40 53 47 77
20z m241 -31 c9 -10 20 -32 23 -49 8 -41 -40 -99 -74 -89 -39 13 -82 56 -82
82 0 58 96 98 133 56z m-443 -47 c22 -20 25 -48 9 -93 -22 -64 -108 -84 -156
-36 -22 22 -25 32 -20 67 8 60 46 91 104 84 24 -2 53 -13 63 -22z m2135 11
c40 -17 43 -28 15 -56 -21 -21 -55 -26 -79 -11 -11 7 -11 15 -1 45 13 41 17
42 65 22z m-2785 -61 c35 -18 37 -34 10 -92 -18 -40 -22 -43 -58 -43 -82 0
-110 82 -43 127 40 27 52 28 91 8z m1019 -120 c35 -40 40 -74 14 -98 -23 -20
-40 -23 -81 -13 -26 6 -37 16 -48 43 -19 44 -10 71 29 88 46 20 52 19 86 -20z
m-1611 -4 c38 -35 44 -87 14 -114 -28 -26 -104 -33 -125 -12 -20 19 -21 36 -7
87 21 73 64 88 118 39z m368 -13 c4 -6 7 -32 6 -57 0 -38 -5 -50 -31 -73 -39
-35 -61 -35 -100 -2 -26 21 -31 33 -31 69 0 72 4 75 80 75 41 0 72 -5 76 -12z
m2953 -12 c41 -44 7 -83 -65 -74 -21 2 -30 10 -35 32 -12 42 5 66 45 66 21 0
40 -8 55 -24z m-3725 -58 c21 -30 21 -104 0 -112 -24 -9 -73 -7 -93 4 -27 14
-36 76 -16 106 21 33 87 34 109 2z m1150 -29 c15 -12 26 -30 26 -44 0 -46 -86
-85 -118 -53 -13 13 -17 100 -5 111 14 14 71 6 97 -14z m-1579 -61 c25 -20 27
-25 22 -71 -10 -76 -28 -97 -86 -97 -61 0 -101 28 -101 71 0 34 33 105 52 112
32 13 87 6 113 -15z m721 -35 c78 -84 15 -169 -102 -139 l-49 12 -3 56 c-3 50
0 58 24 77 39 31 98 28 130 -6z m4310 14 c4 -12 -70 -159 -116 -232 -11 -16
-25 -40 -31 -52 -17 -31 -48 -29 -86 7 l-32 30 5 92 c3 51 7 103 10 116 7 35
32 26 44 -17 19 -72 32 -71 103 3 61 64 92 80 103 53z m-5685 -78 c28 -28 19
-75 -22 -112 -26 -24 -38 -28 -63 -23 -17 3 -39 16 -48 27 -18 21 -24 75 -10
95 26 38 110 46 143 13z m-2625 -43 c36 -31 38 -35 26 -60 -9 -21 -18 -26 -47
-26 -69 0 -90 30 -65 94 13 35 39 33 86 -8z m6669 -16 c8 -25 -40 -90 -65 -90
-22 0 -80 47 -80 65 0 23 44 44 92 44 38 1 48 -3 53 -19z m-4578 -32 c28 -26
31 -82 6 -110 -22 -24 -36 -23 -72 8 -24 20 -31 34 -31 63 0 20 5 42 12 49 19
19 59 14 85 -10z m5263 -57 c0 -22 -37 -71 -53 -71 -14 1 -57 35 -57 46 0 22
36 44 72 44 30 0 38 -4 38 -19z m-787 -153 c15 -17 17 -32 12 -63 -10 -63 -22
-70 -92 -53 l-58 14 -3 43 c-3 45 8 67 43 82 30 13 78 2 98 -23z"/>
<path d="M4644 12354 c-36 -36 -76 -87 -88 -114 -13 -27 -27 -55 -33 -62 -15
-20 -43 -142 -43 -191 0 -47 -9 -35 195 -257 33 -36 91 -101 130 -145 116
-133 482 -501 610 -613 66 -58 134 -119 150 -134 71 -70 544 -438 639 -498 13
-8 89 -58 167 -111 79 -53 176 -115 214 -138 39 -23 79 -47 90 -54 10 -7 37
-23 60 -37 22 -13 54 -32 70 -41 17 -10 62 -35 100 -57 77 -44 472 -243 575
-290 36 -16 95 -44 131 -61 37 -17 71 -31 77 -31 5 0 37 -14 70 -30 34 -16 66
-30 72 -30 7 0 26 -7 43 -14 46 -21 202 -81 272 -105 33 -11 85 -29 115 -40
30 -11 73 -25 95 -30 22 -5 60 -17 85 -27 25 -9 77 -25 115 -36 39 -10 86 -23
105 -29 19 -6 60 -17 90 -24 30 -7 100 -24 155 -38 153 -39 359 -84 465 -102
52 -9 124 -23 160 -30 59 -13 107 -20 300 -45 36 -4 97 -13 135 -19 65 -10
247 -25 605 -52 249 -18 622 -22 810 -9 96 6 238 15 315 20 237 15 416 30 515
45 52 8 141 21 197 30 56 8 118 15 138 15 20 0 64 6 98 14 99 22 177 37 247
46 36 5 108 18 160 30 52 12 122 26 155 31 33 5 73 13 90 18 92 28 144 41 162
41 11 0 51 12 89 26 38 14 83 30 99 36 43 16 292 144 325 168 15 11 31 20 35
20 3 0 38 21 78 47 83 54 146 110 179 160 35 52 96 88 174 103 82 16 97 26 59
40 -32 12 -268 30 -406 30 -170 0 -330 69 -410 177 -19 26 -57 93 -84 148 -60
123 -105 181 -156 202 -49 19 -158 135 -190 201 -25 53 -28 93 -11 171 7 29
12 85 12 122 0 62 -2 69 -19 69 -11 0 -22 -4 -25 -9 -3 -5 -29 -16 -58 -25
-29 -9 -96 -29 -148 -46 -52 -16 -140 -43 -195 -59 -97 -28 -128 -36 -320 -82
-49 -11 -115 -27 -145 -34 -130 -33 -191 -45 -216 -45 -14 0 -49 -6 -77 -14
-49 -13 -115 -25 -344 -62 -54 -8 -134 -22 -178 -30 -44 -8 -99 -14 -123 -14
-24 0 -89 -6 -145 -14 -467 -66 -1178 -98 -1763 -78 -491 16 -711 34 -990 78
-50 8 -108 14 -127 14 -33 0 -89 10 -242 41 -27 6 -77 14 -110 19 -33 5 -100
18 -150 30 -49 12 -112 25 -140 30 -27 4 -86 18 -130 30 -44 12 -107 28 -140
35 -33 8 -82 21 -110 30 -27 9 -93 27 -145 41 -52 14 -99 29 -105 33 -5 4 -41
16 -80 26 -38 10 -86 26 -105 37 -19 10 -41 18 -50 18 -19 0 -100 30 -125 47
-11 7 -29 13 -40 13 -11 0 -47 14 -79 30 -32 17 -63 30 -68 30 -6 0 -38 13
-72 28 -33 16 -81 37 -106 47 -25 10 -52 24 -60 31 -8 6 -26 15 -39 19 -13 4
-65 29 -115 56 -50 27 -113 60 -141 74 -73 37 -149 82 -243 142 -45 29 -85 53
-87 53 -7 0 -184 130 -265 195 -143 113 -360 337 -456 468 -73 101 -146 215
-196 309 -21 39 -37 58 -50 58 -10 0 -48 -29 -84 -66z m2982 -1835 c26 -13 29
-20 32 -65 3 -47 0 -55 -31 -88 -39 -41 -63 -44 -125 -16 -58 26 -79 73 -58
125 26 61 106 80 182 44z m-254 -146 c22 -20 24 -76 2 -97 -22 -23 -48 -20
-83 10 -33 27 -41 70 -19 92 17 17 78 15 100 -5z m5173 -43 c110 -9 180 -18
394 -50 41 -6 106 -20 145 -30 39 -10 91 -24 116 -30 85 -22 220 -88 263 -128
40 -38 53 -67 70 -154 12 -64 12 -87 1 -145 -7 -37 -20 -82 -29 -100 -16 -32
-99 -90 -160 -113 -29 -10 -144 -64 -175 -82 -8 -4 -33 -16 -55 -25 -22 -9
-59 -28 -84 -41 -37 -19 -167 -80 -316 -147 -16 -8 -75 -28 -130 -46 -84 -28
-115 -33 -195 -33 -78 -1 -102 3 -135 21 -69 37 -116 97 -174 223 -11 25 -25
52 -30 60 -6 8 -21 38 -35 67 -99 210 -265 306 -626 363 -63 10 -136 19 -161
19 -41 1 -183 22 -246 36 -31 7 -29 28 5 42 15 7 59 29 97 51 113 63 393 161
540 189 201 38 246 46 315 53 111 11 467 11 605 0z m-2726 -477 c40 -23 42
-63 5 -92 -32 -25 -52 -26 -81 -6 -29 20 -38 62 -18 91 19 29 51 31 94 7z
m684 -113 c58 -46 56 -149 -4 -182 -45 -26 -96 -23 -136 8 -29 22 -33 31 -33
70 0 39 5 49 41 84 48 46 90 53 132 20z"/>
<path d="M12073 10180 c-72 -5 -136 -11 -142 -14 -6 -4 -61 -13 -123 -21 -169
-22 -251 -35 -257 -40 -9 -10 24 -31 79 -52 159 -59 229 -89 268 -114 24 -16
47 -29 51 -29 16 0 129 -121 145 -155 9 -19 20 -36 25 -39 4 -3 16 -27 26 -53
10 -26 23 -55 30 -63 6 -8 19 -36 29 -62 22 -61 69 -124 109 -148 39 -24 110
-26 199 -5 71 17 158 45 173 55 6 3 33 15 60 25 76 28 408 201 413 216 5 14
-35 11 -87 -6 -25 -8 -82 -24 -126 -35 -44 -11 -114 -31 -155 -45 -41 -14 -81
-25 -90 -25 -9 0 -25 -7 -36 -15 -24 -18 -84 -20 -84 -2 1 17 148 114 240 157
47 22 80 48 80 62 0 4 -28 8 -62 8 -70 0 -359 -34 -427 -50 -43 -11 -81 -6
-81 10 0 4 33 18 73 30 39 12 83 28 97 34 14 7 54 21 90 30 36 10 79 24 95 31
17 7 59 21 95 30 36 9 88 23 116 31 28 8 58 14 67 14 39 0 22 20 -30 35 -96
28 -120 31 -593 75 -137 13 -163 18 -155 30 7 12 89 18 385 30 257 10 331 23
204 34 -38 4 -114 13 -169 21 -129 18 -364 25 -532 15z"/>
<path d="M10880 12295 c13 -14 27 -25 32 -25 10 0 173 -75 198 -90 8 -6 33
-19 55 -31 22 -12 51 -29 65 -39 94 -64 137 -83 180 -83 25 0 62 8 84 17 21 9
49 16 62 16 31 0 40 18 18 36 -57 44 -240 120 -374 155 -41 11 -95 26 -120 34
-43 13 -170 35 -206 35 -15 0 -14 -4 6 -25z"/>
<path d="M10710 12124 c0 -11 144 -143 180 -166 19 -13 40 -15 93 -11 37 3 67
9 67 12 0 21 -96 89 -170 120 -30 13 -59 27 -65 31 -15 12 -105 24 -105 14z"/>
<path d="M15360 11977 c-85 -34 -115 -53 -142 -89 -119 -158 -1 -398 196 -398
99 0 197 55 239 134 30 57 31 174 0 231 -30 56 -69 94 -130 121 -63 29 -92 29
-163 1z m28 -144 c7 -43 18 -83 25 -91 20 -19 124 -18 146 2 20 18 47 21 56 7
3 -5 -2 -27 -11 -48 -50 -113 -68 -135 -132 -152 -27 -8 -47 -6 -90 9 -102 36
-160 121 -149 217 4 41 12 54 52 91 26 23 57 42 69 42 19 0 23 -8 34 -77z"/>
<path d="M10282 11868 c6 -16 65 -36 111 -37 48 -1 46 19 -4 36 -46 16 -112
17 -107 1z"/>
<path d="M5762 10387 c-11 -14 -72 -145 -92 -197 -7 -19 -19 -42 -25 -50 -6
-8 -18 -31 -25 -50 -20 -51 -82 -161 -155 -275 -74 -115 -95 -153 -95 -170 0
-20 56 -25 335 -32 413 -9 879 37 1034 104 29 12 32 16 20 28 -33 31 -137 74
-194 80 -67 8 -215 -10 -254 -29 -14 -7 -64 -21 -111 -30 -47 -10 -112 -25
-146 -33 -41 -10 -95 -14 -166 -11 -151 4 -158 22 -23 53 38 9 84 22 100 29
17 8 59 21 95 31 36 9 79 23 95 30 17 7 56 23 87 34 70 25 138 67 138 84 0 16
-76 37 -136 37 -46 0 -150 -25 -169 -41 -15 -11 -153 -39 -197 -39 -39 0 -51
16 -20 27 9 4 35 19 57 33 22 14 48 30 57 35 57 34 127 87 131 99 7 19 -67 94
-100 102 -14 4 -54 4 -90 1 -78 -6 -91 9 -47 54 l28 29 -24 18 c-67 47 -98 62
-108 49z"/>
<path d="M8900 8891 c-8 -5 -40 -12 -70 -15 -30 -4 -86 -13 -125 -21 -38 -8
-122 -22 -185 -31 -74 -10 -122 -22 -134 -32 -21 -20 -86 -113 -107 -157 -9
-16 -20 -39 -27 -50 -45 -81 -102 -228 -102 -265 0 -18 7 -20 66 -20 37 0 112
7 168 15 55 8 151 22 211 31 61 9 128 22 150 29 22 8 76 21 120 30 44 9 94 23
110 30 17 8 65 23 109 35 43 11 84 24 90 29 6 5 40 17 76 26 36 10 74 23 85
29 11 7 43 20 70 30 80 28 268 105 304 125 8 4 16 12 18 18 6 17 -234 -26
-287 -52 -14 -6 -56 -20 -95 -29 -38 -10 -81 -23 -95 -30 -14 -7 -54 -21 -90
-30 -36 -10 -85 -26 -110 -36 -25 -10 -72 -23 -105 -30 -33 -7 -76 -18 -95
-26 -69 -26 -227 -50 -309 -46 -28 2 -32 4 -21 17 7 8 24 15 39 15 14 0 38 6
52 14 14 7 52 21 85 30 32 10 77 26 99 36 22 10 65 26 95 35 30 10 60 22 66
26 6 5 35 18 65 28 98 34 319 140 319 152 0 22 -122 8 -225 -25 -59 -19 -112
-39 -118 -44 -11 -8 -36 -15 -228 -58 -71 -16 -109 -15 -109 3 0 4 37 25 81
46 64 31 215 115 238 134 2 1 -4 12 -14 23 -19 21 -41 25 -65 11z"/>
</g>
</svg>
